<svg width="256" height="256" viewBox="0 0 256 256" fill="none" xmlns="http://www.w3.org/2000/svg">
<g clip-path="url(#clip0_1108_507)">
<rect width="256" height="256" rx="16" fill="black"/>
<path fill-rule="evenodd" clip-rule="evenodd" d="M163.307 124.955C158.454 126.965 153.253 128 148 128C153.253 128 158.454 129.035 163.307 131.045C168.16 133.055 172.57 136.001 176.284 139.716C179.999 143.43 182.945 147.84 184.955 152.693C186.965 157.546 188 162.747 188 168H148L188 168L188 208H148H128L128 48L148 48L148 48C153.253 48 158.454 49.0346 163.307 51.0448C168.16 53.055 172.57 56.0014 176.284 59.7157C179.999 63.4301 182.945 67.8396 184.955 72.6927C186.965 77.5457 188 82.7471 188 88C188 93.2529 186.965 98.4543 184.955 103.307C182.945 108.16 179.999 112.57 176.284 116.284C172.57 119.999 168.16 122.945 163.307 124.955Z" fill="white"/>
<path fill-rule="evenodd" clip-rule="evenodd" d="M92.6927 51.0448C97.5457 49.0346 102.747 48 108 48V88L68 88C68 82.7471 69.0346 77.5457 71.0448 72.6927C73.055 67.8396 76.0014 63.4301 79.7157 59.7157C83.4301 56.0014 87.8396 53.055 92.6927 51.0448ZM68 88L68 208H108L108 88L68 88Z" fill="white"/>
</g>
<defs>
<clipPath id="clip0_1108_507">
<rect width="256" height="256" fill="white"/>
</clipPath>
</defs>
</svg>
